<?xml version="1.0" encoding="utf-8"?>
<!-- Generator: Adobe Illustrator 18.1.1, SVG Export Plug-In . SVG Version: 6.00 Build 0)  -->
<svg version="1.1" id="Layer_1" xmlns="http://www.w3.org/2000/svg" xmlns:xlink="http://www.w3.org/1999/xlink" x="0px" y="0px"
	 viewBox="0 0 21 20.6" enable-background="new 0 0 21 20.6" xml:space="preserve">
<g>
	<defs>
		<rect id="SVGID_1_" x="1.5" y="1.1" width="18.4" height="18.4"/>
	</defs>
	<clipPath id="SVGID_2_">
		<use xlink:href="#SVGID_1_"  overflow="visible"/>
	</clipPath>
	<g opacity="0.8" clip-path="url(#SVGID_2_)">
		<g>
			<defs>
				<rect id="SVGID_3_" x="-7.5" y="-5.9" width="36.4" height="26.4"/>
			</defs>
			<clipPath id="SVGID_4_">
				<use xlink:href="#SVGID_3_"  overflow="visible"/>
			</clipPath>
			<path clip-path="url(#SVGID_4_)" d="M10.7,19.5c-5.1,0-9.2-4.1-9.2-9.2c0-5.1,4.1-9.2,9.2-9.2c5.1,0,9.2,4.1,9.2,9.2
				C19.9,15.4,15.8,19.5,10.7,19.5z M10.7,2.1c-4.5,0-8.2,3.7-8.2,8.2s3.7,8.2,8.2,8.2s8.2-3.7,8.2-8.2S15.2,2.1,10.7,2.1z"/>
		</g>
	</g>
</g>
<path d="M9.3,14.8c-0.1,0-0.3-0.1-0.4-0.2c-0.2-0.2-0.2-0.5,0-0.7l3.9-3.7l-4.2-3C8.5,7,8.4,6.7,8.6,6.5c0.2-0.2,0.5-0.3,0.7-0.1
	l5.2,3.7l-4.8,4.6C9.6,14.7,9.5,14.8,9.3,14.8z"/>
<rect x="1.5" y="1.1" fill="none" width="18.4" height="18.4"/>
</svg>
